<svg version="1.1" xmlns="http://www.w3.org/2000/svg" viewBox="-292.2 -1591.3875 6205.002829986328 2746.275"><desc>Created with Snap</desc><defs></defs><g><g transform="matrix(28.0595,0,0,28.0595,3122.6409,-1635.2817)"><g><path d="M74.265,60.41c0.964,2.929,1.401,5.966,1.261,9.015c2.584-0.989,5.013-2.49,7.095-4.572c0.244-0.244,0.41-0.527,0.637-0.78   c0.018-0.341,0.105-0.659,0.105-1.004c0-2.924-0.646-5.691-1.764-8.203C79.522,57.139,77.045,59.022,74.265,60.41z" fill="#6daedb" style=""></path><path d="M54.863,81.605c2.509,1.112,5.276,1.759,8.2,1.759c0.349,0,0.664-0.085,1.004-0.103c0.253-0.227,0.541-0.393,0.781-0.637   c2.08-2.085,3.585-4.516,4.572-7.104c-3.049,0.14-6.086-0.292-9.01-1.257C59.022,77.049,57.137,79.528,54.863,81.605z" fill="#6daedb" style=""></path><path d="M40.588,74.265c-2.925,0.965-5.965,1.396-9.013,1.257c0.988,2.588,2.49,5.023,4.573,7.104   c0.242,0.244,0.528,0.41,0.779,0.637c0.339,0.018,0.661,0.103,1.003,0.103c2.926,0,5.691-0.646,8.202-1.759   C43.861,79.528,41.976,77.049,40.588,74.265z" fill="#6daedb" style=""></path><path d="M26.731,60.41c-2.781-1.388-5.26-3.271-7.337-5.545c-1.112,2.512-1.758,5.279-1.758,8.203c0,0.345,0.085,0.663,0.1,1.004   c0.229,0.253,0.395,0.536,0.639,0.78c2.082,2.082,4.515,3.583,7.098,4.572C25.333,66.376,25.767,63.339,26.731,60.41z" fill="#6daedb" style=""></path><path d="M26.731,40.592c-0.964-2.929-1.398-5.966-1.259-9.016c-2.583,0.989-5.014,2.491-7.098,4.572   c-0.244,0.245-0.41,0.528-0.639,0.781c-0.015,0.341-0.1,0.659-0.1,1.004c0,2.924,0.646,5.69,1.76,8.205   C21.471,43.863,23.95,41.979,26.731,40.592z" fill="#6daedb" style=""></path><path d="M46.132,19.397c-2.511-1.114-5.275-1.76-8.202-1.76c-0.342,0-0.664,0.084-1.003,0.102   c-0.251,0.228-0.537,0.393-0.779,0.638c-2.083,2.08-3.585,4.515-4.573,7.103c3.048-0.14,6.088,0.293,9.013,1.257   C41.976,23.952,43.861,21.475,46.132,19.397z" fill="#6daedb" style=""></path><path d="M60.41,26.736c2.924-0.964,5.961-1.396,9.01-1.257c-0.99-2.588-2.492-5.017-4.572-7.103   c-0.24-0.245-0.528-0.41-0.781-0.638c-0.34-0.018-0.659-0.102-1.004-0.102c-2.924,0-5.691,0.646-8.2,1.76   C57.137,21.475,59.022,23.952,60.41,26.736z" fill="#6daedb" style=""></path><path d="M82.621,36.148c-2.082-2.081-4.511-3.583-7.095-4.572c0.14,3.05-0.297,6.087-1.261,9.016   c2.78,1.388,5.257,3.271,7.334,5.547c1.117-2.515,1.764-5.281,1.764-8.205c0-0.345-0.088-0.663-0.105-1.004   C83.031,36.677,82.865,36.394,82.621,36.148z" fill="#6daedb" style=""></path><path d="M58.228,63.068c0-0.166-0.048-0.319-0.052-0.484c-1.061-0.21-2.09-0.498-3.099-0.834c-0.462,0.921-0.89,1.851-1.469,2.719   c0.113,0.122,0.19,0.267,0.309,0.384c1.143,1.14,2.404,2.069,3.718,2.881C57.993,66.228,58.228,64.683,58.228,63.068z" fill="#6daedb" style=""></path><path d="M43.362,67.733c1.313-0.812,2.574-1.741,3.715-2.881c0.12-0.117,0.199-0.262,0.312-0.384   c-0.581-0.868-1.008-1.798-1.471-2.719c-1.008,0.336-2.038,0.624-3.1,0.834c-0.002,0.165-0.048,0.318-0.048,0.484   C42.771,64.683,43.006,66.228,43.362,67.733z" fill="#6daedb" style=""></path><path d="M36.148,53.922c-1.139,1.14-2.068,2.4-2.88,3.717c1.503,0.355,3.051,0.59,4.663,0.59c0.166,0,0.318-0.044,0.484-0.048   c0.209-1.06,0.495-2.094,0.833-3.102c-0.918-0.463-1.848-0.886-2.716-1.471C36.411,53.726,36.269,53.805,36.148,53.922z" fill="#6daedb" style=""></path><path d="M38.415,42.821c-0.166-0.006-0.319-0.05-0.484-0.05c-1.612,0-3.159,0.236-4.663,0.591c0.812,1.318,1.739,2.578,2.88,3.717   c0.12,0.118,0.262,0.196,0.384,0.314c0.868-0.583,1.797-1.008,2.716-1.471C38.91,44.916,38.625,43.881,38.415,42.821z" fill="#6daedb" style=""></path><path d="M42.771,37.934c0,0.166,0.046,0.318,0.048,0.484c1.062,0.21,2.092,0.498,3.1,0.834c0.462-0.921,0.89-1.851,1.471-2.719   c-0.113-0.123-0.192-0.267-0.312-0.385c-1.141-1.139-2.402-2.066-3.715-2.879C43.006,34.774,42.771,36.319,42.771,37.934z" fill="#6daedb" style=""></path><path d="M57.635,33.27c-1.314,0.812-2.575,1.74-3.718,2.879c-0.118,0.118-0.195,0.262-0.309,0.385   c0.579,0.868,1.007,1.798,1.469,2.719c1.008-0.336,2.038-0.624,3.099-0.834c0.004-0.166,0.052-0.318,0.052-0.484   C58.228,36.319,57.993,34.774,57.635,33.27z" fill="#6daedb" style=""></path><path d="M63.063,42.771c-0.166,0-0.314,0.044-0.48,0.05c-0.209,1.06-0.498,2.095-0.838,3.102c0.921,0.463,1.851,0.888,2.719,1.471   c0.122-0.118,0.266-0.196,0.384-0.314c1.139-1.139,2.067-2.398,2.883-3.717C66.226,43.008,64.678,42.771,63.063,42.771z" fill="#6daedb" style=""></path><path d="M48.074,49.493c-0.035,0.676-0.035,1.339,0,2.012c0.452,0.502,0.921,0.969,1.42,1.423c0.671,0.034,1.335,0.034,2.007,0   c0.5-0.454,0.972-0.926,1.423-1.423c0.035-0.673,0.033-1.336,0-2.008c-0.451-0.502-0.921-0.969-1.42-1.423   c-0.673-0.035-1.34-0.035-2.012,0C48.995,48.528,48.524,48.995,48.074,49.493z" fill="#6daedb" style=""></path><path d="M64.464,53.608c-0.868,0.585-1.798,1.008-2.719,1.471c0.34,1.008,0.628,2.042,0.838,3.102   c0.166,0.004,0.314,0.048,0.48,0.048c1.615,0,3.163-0.234,4.668-0.59c-0.816-1.316-1.745-2.577-2.883-3.717   C64.73,53.805,64.586,53.726,64.464,53.608z" fill="#6daedb" style=""></path><path d="M72.271,55.926c2.583-1.327,4.827-3.173,6.615-5.425c-1.788-2.252-4.031-4.098-6.615-5.425   c-1.091,1.929-2.357,3.784-3.998,5.425C69.914,52.142,71.179,53.996,72.271,55.926z" fill="#6daedb" style=""></path><path d="M62.138,31.245c0.585,2.133,0.925,4.367,0.925,6.688c2.322,0,4.555,0.341,6.689,0.93c0.868-2.745,1.143-5.603,0.82-8.436   C67.74,30.104,64.879,30.375,62.138,31.245z" fill="#6daedb" style=""></path><path d="M50.498,22.11c-2.253,1.794-4.099,4.033-5.424,6.616c1.927,1.096,3.782,2.361,5.424,4.002   c1.644-1.641,3.498-2.906,5.426-4.002C54.597,26.144,52.752,23.904,50.498,22.11z" fill="#6daedb" style=""></path><path d="M37.931,37.934c0-2.321,0.34-4.556,0.927-6.688c-2.74-0.87-5.601-1.141-8.432-0.817c-0.323,2.833-0.05,5.69,0.817,8.436   C33.377,38.274,35.612,37.934,37.931,37.934z" fill="#6daedb" style=""></path><path d="M22.108,50.501c1.794,2.252,4.034,4.098,6.618,5.425c1.091-1.93,2.356-3.784,3.999-5.425   c-1.643-1.641-2.908-3.496-4.001-5.425C26.143,46.403,23.902,48.249,22.108,50.501z" fill="#6daedb" style=""></path><path d="M38.858,69.757c-0.587-2.133-0.927-4.367-0.927-6.688c-2.319,0-4.553-0.341-6.688-0.93   c-0.868,2.745-1.14,5.604-0.817,8.436C33.257,70.896,36.118,70.627,38.858,69.757z" fill="#6daedb" style=""></path><path d="M50.498,78.891c2.255-1.793,4.1-4.032,5.426-6.616c-1.929-1.095-3.782-2.36-5.426-4c-1.642,1.64-3.497,2.905-5.424,4   C46.401,74.858,48.245,77.098,50.498,78.891z" fill="#6daedb" style=""></path><path d="M63.063,63.068c0,2.321-0.34,4.556-0.925,6.688c2.741,0.87,5.602,1.139,8.435,0.817c0.323-2.832,0.048-5.695-0.82-8.436   C67.618,62.728,65.385,63.068,63.063,63.068z" fill="#6daedb" style=""></path><path d="M87.425,44.026c-0.571,2.304-1.457,4.476-2.614,6.475c1.157,1.999,2.043,4.177,2.614,6.475   C88.844,52.771,88.844,48.231,87.425,44.026z" fill="#6daedb" style=""></path><path d="M81.233,29.05c-1.981-4.041-5.244-7.301-9.286-9.282c1.249,2.063,2.147,4.268,2.745,6.541   C76.966,26.907,79.165,27.802,81.233,29.05z" fill="#6daedb" style=""></path><path d="M56.971,13.576c-4.204-1.418-8.742-1.418-12.947,0c2.3,0.571,4.473,1.453,6.473,2.614   C52.5,15.029,54.671,14.147,56.971,13.576z" fill="#6daedb" style=""></path><path d="M29.047,19.768c-4.042,1.981-7.301,5.241-9.284,9.282c2.066-1.248,4.268-2.143,6.541-2.741   C26.904,24.035,27.798,21.831,29.047,19.768z" fill="#6daedb" style=""></path><path d="M13.571,56.973c0.574-2.3,1.458-4.473,2.616-6.472c-1.159-1.999-2.04-4.171-2.616-6.472   C12.158,48.231,12.158,52.771,13.571,56.973z" fill="#6daedb" style=""></path><path d="M19.765,71.952c1.981,4.041,5.24,7.297,9.279,9.282c-1.248-2.068-2.141-4.269-2.741-6.542   C24.031,74.095,21.829,73.2,19.765,71.952z" fill="#6daedb" style=""></path><path d="M44.024,87.426c4.205,1.418,8.746,1.418,12.947,0c-2.3-0.572-4.472-1.453-6.474-2.614   C48.498,85.973,46.324,86.854,44.024,87.426z" fill="#6daedb" style=""></path><path d="M71.952,81.234c4.037-1.985,7.3-5.241,9.281-9.282c-2.068,1.248-4.267,2.143-6.541,2.74   C74.095,76.966,73.2,79.166,71.952,81.234z" fill="#6daedb" style=""></path></g><desc>Created with Snap</desc><defs></defs></g><g><g transform="matrix(0.5,0,0,-0.5,0,0)"><path d="M503 1133Q503 1123 500 1115Q498 1108 495 1100Q478 1060 459 1021Q440 983 429 940Q392 790 373 637Q355 484 349 329Q414 315 465 283Q517 251 566 207Q661 247 738 307Q816 367 871 445Q926 523 956 618Q986 713 986 821Q986 881 968 943Q951 1006 919 1065Q888 1124 844 1176Q801 1228 748 1266Q695 1305 634 1327Q574 1350 509 1350Q447 1350 380 1327Q314 1304 259 1262Q204 1221 169 1163Q134 1105 134 1036Q134 1009 140 987Q147 966 154 948Q162 930 168 914Q175 899 175 883Q175 854 155 834Q136 815 108 815Q82 815 67 829Q52 843 43 864Q35 885 32 908Q30 932 30 950Q30 1038 72 1109Q114 1180 180 1237Q222 1273 264 1300Q307 1327 352 1346Q398 1365 447 1374Q496 1384 552 1384Q632 1384 706 1364Q781 1344 846 1307Q912 1270 966 1218Q1021 1166 1060 1102Q1099 1038 1120 963Q1142 889 1142 807Q1142 686 1098 584Q1055 482 981 401Q907 321 809 262Q711 204 603 171Q614 160 624 150Q635 140 646 129Q706 70 765 4Q825 -62 888 -127Q951 -192 1018 -252Q1085 -311 1160 -357Q1235 -402 1319 -429Q1404 -456 1501 -456Q1518 -456 1533 -455Q1549 -453 1566 -448L1571 -468Q1527 -491 1478 -501Q1429 -511 1378 -511Q1272 -511 1185 -490Q1098 -468 1024 -429Q950 -390 887 -336Q824 -281 766 -216Q708 -151 652 -78Q597 -4 538 74Q525 91 512 108Q500 126 488 143Q452 137 416 133Q381 130 346 129Q346 7 352 -112Q358 -231 366 -346L347 -352Q306 -246 284 -120Q263 6 252 134Q226 138 201 145Q176 152 155 164Q135 177 122 195Q110 214 110 240Q110 264 122 281Q134 299 153 310Q173 322 196 328Q219 335 242 337Q241 365 241 392Q241 420 241 446Q241 487 241 548Q242 609 246 678Q251 747 261 818Q271 890 288 953Q306 1016 333 1065Q361 1114 401 1137Q416 1146 434 1153Q452 1161 472 1161Q503 1161 503 1133ZM145 236Q145 222 154 211Q163 200 178 191Q193 183 211 177Q230 171 250 167Q248 201 246 234Q245 268 243 301Q226 301 208 299Q191 297 177 290Q163 283 154 270Q145 258 145 236ZM346 158Q377 158 407 162Q437 166 466 173Q441 207 412 235Q384 264 347 281Q346 250 346 219Q346 189 346 158ZM1901 147L1909 143Q1883 105 1846 72Q1810 39 1766 15Q1723 -9 1675 -23Q1628 -37 1580 -37Q1512 -37 1453 -20Q1394 -2 1350 34Q1306 70 1281 124Q1256 179 1256 252Q1256 324 1282 386Q1309 449 1355 495Q1402 542 1465 569Q1528 596 1600 596Q1634 596 1663 586Q1693 577 1715 558Q1737 540 1749 513Q1762 486 1762 451Q1762 409 1745 377Q1728 345 1700 321Q1672 297 1636 281Q1601 265 1562 255Q1524 245 1486 240Q1449 236 1418 236L1394 236Q1407 145 1466 97Q1525 49 1629 49Q1703 49 1773 75Q1844 101 1901 147ZM1391 289L1391 266L1416 266Q1452 266 1490 277Q1528 289 1558 311Q1589 334 1609 367Q1629 400 1629 442Q1629 483 1611 510Q1594 537 1551 537Q1507 537 1476 510Q1446 484 1427 445Q1408 407 1399 364Q1391 322 1391 289ZM2483 147L2491 143Q2465 100 2423 66Q2382 33 2332 9Q2283 -14 2229 -27Q2176 -39 2127 -39Q2067 -39 2015 -21Q1964 -3 1925 31Q1887 66 1865 114Q1844 163 1844 225Q1844 295 1869 362Q1895 429 1940 481Q1986 533 2048 564Q2111 596 2184 596Q2208 596 2232 591Q2256 586 2276 574Q2296 563 2308 544Q2321 525 2321 496Q2321 467 2306 445Q2291 424 2268 410Q2245 396 2218 387Q2192 379 2168 375L2168 389Q2182 393 2198 400Q2215 407 2229 418Q2243 429 2252 444Q2262 459 2262 477Q2262 491 2255 500Q2249 510 2239 516Q2230 522 2218 525Q2206 528 2194 528Q2143 528 2102 505Q2062 483 2034 446Q2006 409 1991 363Q1977 317 1977 270Q1977 216 1993 173Q2010 131 2040 101Q2070 71 2113 55Q2156 39 2209 39Q2243 39 2281 46Q2320 54 2356 68Q2393 82 2426 102Q2459 122 2483 147ZM3202 147L3211 143Q3193 103 3165 71Q3138 39 3106 16Q3074 -6 3040 -19Q3006 -31 2975 -31Q2917 -31 2877 -11Q2837 9 2812 43Q2787 77 2776 123Q2765 169 2765 221Q2765 261 2771 304Q2777 347 2788 387Q2790 393 2792 401Q2794 410 2794 416Q2794 421 2788 424Q2771 430 2752 435Q2733 441 2714 448Q2696 455 2679 464Q2663 473 2651 487Q2650 427 2631 365Q2612 304 2580 247Q2549 191 2507 142Q2465 93 2418 57L2408 67Q2437 99 2461 143Q2485 187 2502 235Q2519 283 2528 332Q2538 381 2538 424Q2538 446 2534 465Q2530 485 2525 503Q2521 521 2517 537Q2513 554 2513 571Q2513 599 2531 615Q2549 631 2577 631Q2592 631 2600 622Q2608 614 2614 602Q2620 590 2628 577Q2636 564 2651 555Q2670 544 2699 539Q2728 534 2760 530Q2792 526 2824 522Q2856 518 2881 508Q2907 499 2923 482Q2939 466 2939 438Q2939 424 2936 410Q2934 397 2929 385Q2917 343 2908 299Q2900 256 2900 213Q2900 176 2905 145Q2911 115 2926 93Q2941 71 2966 59Q2991 47 3030 47Q3086 47 3128 74Q3170 102 3202 147ZM3957 147L3963 143Q3946 108 3917 76Q3888 44 3852 18Q3816 -7 3776 -22Q3736 -37 3697 -37Q3643 -37 3607 -5Q3572 28 3555 74Q3516 35 3469 9Q3422 -16 3365 -16Q3314 -16 3274 2Q3235 21 3209 53Q3183 85 3169 127Q3156 169 3156 217Q3156 271 3171 322Q3186 374 3213 420Q3240 467 3277 507Q3314 547 3357 578L3369 569Q3327 509 3302 436Q3277 364 3277 289Q3277 257 3284 221Q3291 185 3307 154Q3323 123 3349 102Q3376 82 3416 82Q3450 82 3481 93Q3512 105 3541 125Q3539 137 3538 148Q3537 160 3537 172Q3537 220 3551 276Q3565 332 3588 387Q3611 443 3640 493Q3670 544 3701 580L3713 571Q3690 494 3675 412Q3660 330 3660 250Q3660 214 3664 180Q3669 147 3683 120Q3698 94 3724 78Q3750 63 3793 63Q3841 63 3883 87Q3925 112 3957 147ZM4137 807Q4137 787 4128 767Q4119 747 4104 731Q4090 716 4071 706Q4052 696 4032 696Q4006 696 3990 713Q3975 730 3975 756Q3975 776 3984 795Q3993 815 4007 830Q4022 845 4040 854Q4059 864 4079 864Q4105 864 4121 848Q4137 832 4137 807ZM4411 147L4417 143Q4394 105 4362 73Q4331 42 4293 18Q4256 -5 4213 -18Q4171 -31 4126 -31Q4070 -31 4026 -12Q3983 7 3953 40Q3924 74 3908 119Q3893 165 3893 219Q3893 277 3910 329Q3927 381 3957 426Q3987 472 4027 510Q4068 548 4114 578L4126 569Q4077 511 4046 439Q4016 367 4016 289Q4016 244 4026 202Q4037 161 4059 129Q4082 97 4117 78Q4152 59 4202 59Q4261 59 4314 84Q4368 109 4411 147ZM5023 147L5029 143Q5007 106 4977 74Q4948 42 4912 18Q4877 -6 4836 -20Q4795 -33 4751 -33Q4686 -33 4636 -11Q4587 11 4551 48Q4515 86 4491 136Q4467 186 4453 240Q4439 295 4433 352Q4427 409 4427 461Q4427 509 4431 559Q4435 610 4443 663Q4412 662 4382 662Q4353 662 4324 662Q4305 662 4281 663Q4257 664 4236 671Q4215 678 4201 692Q4187 706 4187 733Q4187 748 4192 757Q4198 766 4207 770Q4217 775 4229 776Q4242 778 4255 778Q4270 778 4326 773Q4382 768 4461 762Q4486 880 4525 994Q4565 1108 4615 1202L4629 1202Q4597 1093 4572 982Q4548 871 4536 757Q4609 752 4686 748Q4764 745 4838 745Q4947 745 5015 747Q5083 749 5122 752Q5168 756 5191 760L5195 743Q5135 729 5058 716Q4981 704 4894 694Q4807 685 4714 678Q4621 671 4529 667Q4527 647 4527 626Q4527 606 4527 586Q4527 538 4531 480Q4536 422 4548 363Q4560 305 4580 249Q4601 194 4634 151Q4668 109 4715 83Q4762 57 4826 57Q4885 57 4932 83Q4980 109 5023 147ZM5605 147L5613 143Q5587 105 5550 72Q5514 39 5470 15Q5427 -9 5379 -23Q5332 -37 5284 -37Q5216 -37 5157 -20Q5098 -2 5054 34Q5010 70 4985 124Q4960 179 4960 252Q4960 324 4986 386Q5013 449 5059 495Q5106 542 5169 569Q5232 596 5304 596Q5338 596 5367 586Q5397 577 5419 558Q5441 540 5453 513Q5466 486 5466 451Q5466 409 5449 377Q5432 345 5404 321Q5376 297 5340 281Q5305 265 5266 255Q5228 245 5190 240Q5153 236 5122 236L5098 236Q5111 145 5170 97Q5229 49 5333 49Q5407 49 5477 75Q5548 101 5605 147ZM5095 289L5095 266L5120 266Q5156 266 5194 277Q5232 289 5262 311Q5293 334 5313 367Q5333 400 5333 442Q5333 483 5315 510Q5298 537 5255 537Q5211 537 5180 510Q5150 484 5131 445Q5112 407 5103 364Q5095 322 5095 289ZM6324 147L6333 143Q6315 103 6287 71Q6260 39 6228 16Q6196 -6 6162 -19Q6128 -31 6097 -31Q6039 -31 5999 -11Q5959 9 5934 43Q5909 77 5898 123Q5887 169 5887 221Q5887 261 5893 304Q5899 347 5910 387Q5912 393 5914 401Q5916 410 5916 416Q5916 421 5910 424Q5893 430 5874 435Q5855 441 5836 448Q5818 455 5801 464Q5785 473 5773 487Q5772 427 5753 365Q5734 304 5702 247Q5671 191 5629 142Q5587 93 5540 57L5530 67Q5559 99 5583 143Q5607 187 5624 235Q5641 283 5650 332Q5660 381 5660 424Q5660 446 5656 465Q5652 485 5647 503Q5643 521 5639 537Q5635 554 5635 571Q5635 599 5653 615Q5671 631 5699 631Q5714 631 5722 622Q5730 614 5736 602Q5742 590 5750 577Q5758 564 5773 555Q5792 544 5821 539Q5850 534 5882 530Q5914 526 5946 522Q5978 518 6003 508Q6029 499 6045 482Q6061 466 6061 438Q6061 424 6058 410Q6056 397 6051 385Q6039 343 6030 299Q6022 256 6022 213Q6022 176 6027 145Q6033 115 6048 93Q6063 71 6088 59Q6113 47 6152 47Q6208 47 6250 74Q6292 102 6324 147Z" fill="#6daedb" style=""></path></g></g></g></svg>