<svg width="15" height="13" viewBox="0 0 15 13" fill="none" xmlns="http://www.w3.org/2000/svg">
  <path d="M11.7857 7.76786V10.4464C11.7857 11.1105 11.5499 11.6783 11.0784 12.1498C10.6069 12.6214 10.0391 12.8571 9.375 12.8571H2.41071C1.74665 12.8571 1.17885 12.6214 0.70731 12.1498C0.235768 11.6783 0 11.1105 0 10.4464V3.48214C0 2.81808 0.235768 2.25028 0.70731 1.77874C1.17885 1.3072 1.74665 1.07143 2.41071 1.07143H8.30357C8.3817 1.07143 8.44587 1.09654 8.49609 1.14676C8.54632 1.19699 8.57143 1.26116 8.57143 1.33929V1.875C8.57143 1.95313 8.54632 2.0173 8.49609 2.06752C8.44587 2.11775 8.3817 2.14286 8.30357 2.14286H2.41071C2.04241 2.14286 1.72712 2.27399 1.46484 2.53627C1.20257 2.79855 1.07143 3.11384 1.07143 3.48214V10.4464C1.07143 10.8147 1.20257 11.13 1.46484 11.3923C1.72712 11.6546 2.04241 11.7857 2.41071 11.7857H9.375C9.74331 11.7857 10.0586 11.6546 10.3209 11.3923C10.5831 11.13 10.7143 10.8147 10.7143 10.4464V7.76786C10.7143 7.68973 10.7394 7.62556 10.7896 7.57534C10.8398 7.52511 10.904 7.5 10.9821 7.5H11.5179C11.596 7.5 11.6602 7.52511 11.7104 7.57534C11.7606 7.62556 11.7857 7.68973 11.7857 7.76786ZM15 0.535714V4.82143C15 4.96652 14.947 5.09208 14.841 5.1981C14.7349 5.30413 14.6094 5.35714 14.4643 5.35714C14.3192 5.35714 14.1936 5.30413 14.0876 5.1981L12.6144 3.72489L7.15681 9.18248C7.101 9.23828 7.03683 9.26618 6.96429 9.26618C6.89174 9.26618 6.82757 9.23828 6.77176 9.18248L5.81752 8.22824C5.76172 8.17243 5.73382 8.10826 5.73382 8.03572C5.73382 7.96317 5.76172 7.899 5.81752 7.84319L11.2751 2.3856L9.8019 0.912389C9.69587 0.806361 9.64286 0.680805 9.64286 0.535714C9.64286 0.390624 9.69587 0.265067 9.8019 0.15904C9.90792 0.0530129 10.0335 0 10.1786 0H14.4643C14.6094 0 14.7349 0.0530129 14.841 0.15904C14.947 0.265067 15 0.390624 15 0.535714Z" fill="#737373"/>
</svg>
